<svg width="17" height="16" viewBox="0 0 17 16" fill="none" xmlns="http://www.w3.org/2000/svg">
<path fill-rule="evenodd" clip-rule="evenodd" d="M3.88113 4.66667C3.39021 4.66667 2.77002 5.3161 2.77002 5.81818V12.1818C2.77002 12.6839 3.39021 13.3333 3.88113 13.3333H13.6589C14.1498 13.3333 14.77 12.6839 14.77 12.1818V5.66667C14.77 5.16459 14.1498 4.66667 13.6589 4.66667H3.88113ZM2.10335 5.81818C2.10335 4.81403 2.89929 4 3.88113 4H13.6589C14.6407 4 15.4367 4.81403 15.4367 5.81818V12.1818C15.4367 13.186 14.6407 14 13.6589 14H3.88113C2.89929 14 2.10335 13.186 2.10335 12.1818V5.81818Z" fill="black"/>
<path fill-rule="evenodd" clip-rule="evenodd" d="M6.68669 2.88889C6.57618 2.88889 6.4702 2.93571 6.39206 3.01906C6.31392 3.10241 6.27002 3.21546 6.27002 3.33333V4.22222C6.27002 4.46768 6.08347 4.66667 5.85335 4.66667C5.62324 4.66667 5.43669 4.46768 5.43669 4.22222V3.33333C5.43669 2.97971 5.56838 2.64057 5.8028 2.39052C6.03722 2.14048 6.35517 2 6.68669 2H10.8534C11.1849 2 11.5028 2.14048 11.7372 2.39052C11.9717 2.64057 12.1034 2.97971 12.1034 3.33333V4.22222C12.1034 4.46768 11.9168 4.66667 11.6867 4.66667C11.4566 4.66667 11.27 4.46768 11.27 4.22222V3.33333C11.27 3.21546 11.2261 3.10241 11.148 3.01906C11.0698 2.93571 10.9639 2.88889 10.8534 2.88889H6.68669Z" fill="black"/>
<path fill-rule="evenodd" clip-rule="evenodd" d="M2.10335 7.66665C2.10335 7.48255 2.30234 7.33331 2.5478 7.33331H14.9922C15.2377 7.33331 15.4367 7.48255 15.4367 7.66665C15.4367 7.85074 15.2377 7.99998 14.9922 7.99998H2.5478C2.30234 7.99998 2.10335 7.85074 2.10335 7.66665Z" fill="black"/>
<path fill-rule="evenodd" clip-rule="evenodd" d="M7.17002 7.33331C7.39093 7.33331 7.57002 7.48255 7.57002 7.66665V7.99998H9.97002V7.66665C9.97002 7.48255 10.1491 7.33331 10.37 7.33331C10.5909 7.33331 10.77 7.48255 10.77 7.66665V8.16665C10.77 8.29925 10.7068 8.42643 10.5943 8.5202C10.4818 8.61397 10.3291 8.66665 10.17 8.66665H7.37002C7.21089 8.66665 7.05828 8.61397 6.94576 8.5202C6.83323 8.42643 6.77002 8.29925 6.77002 8.16665V7.66665C6.77002 7.48255 6.94911 7.33331 7.17002 7.33331Z" fill="black"/>
</svg>
