<svg width="17" height="16" viewBox="0 0 17 16" fill="none" xmlns="http://www.w3.org/2000/svg">
<path fill-rule="evenodd" clip-rule="evenodd" d="M12.1033 2.66669H4.57002C3.94498 2.66669 3.43668 3.181 3.43668 3.81344V10.6939C3.43668 11.3264 3.94498 11.8407 4.57002 11.8407H6.10334V11.2437L5.07101 11.2103C4.5316 11.1928 4.10335 10.7505 4.10335 10.2108V4.33335C4.10335 3.78107 4.55107 3.33335 5.10335 3.33335H12.1033V2.66669ZM9.82698 11.8407L7.43668 13.2918V12.6178L9.64935 11.2534C9.72824 11.2047 9.8191 11.179 9.91178 11.179H13.1033C13.6556 11.179 14.1033 10.7312 14.1033 10.179V5.84563H14.77L14.77 5.33335L14.77 10.6939C14.77 11.3264 14.2617 11.8407 13.6367 11.8407H9.82698ZM14.77 3.81344L14.77 2.66669H12.6367V3.33335H13.4367L12.1034 4.66669L12.2914 5.33335L14.1034 3.66669V5.33335H14.77L14.77 3.81344Z" fill="black"/>
</svg>
