<svg width="24" height="24" viewBox="0 0 24 24" fill="none" xmlns="http://www.w3.org/2000/svg">
<path d="M12.4688 8.25C12.4688 5.90653 10.5762 4 8.25 4C5.91747 4 4 5.91809 4 8.25C4 10.419 5.65756 12.2106 7.78125 12.443V15.2812H6.375C6.11613 15.2812 5.90625 15.4911 5.90625 15.75C5.90625 16.0089 6.11613 16.2188 6.375 16.2188H7.78125V17.625C7.78125 17.8839 7.99113 18.0938 8.25 18.0938C8.50887 18.0938 8.71875 17.8839 8.71875 17.625V16.2188H10.125C10.3839 16.2188 10.5938 16.0089 10.5938 15.75C10.5938 15.4911 10.3839 15.2812 10.125 15.2812H8.71875V12.4426C10.8252 12.2086 12.4688 10.4178 12.4688 8.25ZM4.9375 8.25C4.9375 6.42347 6.4235 4.9375 8.25 4.9375C10.0593 4.9375 11.5312 6.42347 11.5312 8.25C11.5312 10.0593 10.0593 11.5312 8.25 11.5312C6.4235 11.5312 4.9375 10.0593 4.9375 8.25Z" fill="black"/>
<path d="M16.2188 11.557V7.50667L17.2936 8.58145C17.4766 8.76452 17.7734 8.76455 17.9565 8.58145C18.1395 8.39839 18.1395 8.10161 17.9565 7.91855L16.0815 6.04355C15.8984 5.86048 15.6016 5.86048 15.4186 6.04355L13.5436 7.91855C13.3605 8.10161 13.3605 8.39839 13.5436 8.58145C13.7266 8.76452 14.0234 8.76452 14.2065 8.58145L15.2812 7.50667V11.5575C13.1748 11.7914 11.5312 13.5822 11.5312 15.75C11.5312 18.0935 13.4238 20 15.75 20C18.0825 20 20 18.0819 20 15.75C20 13.581 18.3424 11.7894 16.2188 11.557ZM15.75 19.0625C13.9407 19.0625 12.4688 17.5765 12.4688 15.75C12.4688 13.9407 13.9407 12.4688 15.75 12.4688C17.5765 12.4688 19.0625 13.9407 19.0625 15.75C19.0625 17.5765 17.5765 19.0625 15.75 19.0625Z" fill="black"/>
</svg>
