<svg width="17" height="16" viewBox="0 0 17 16" fill="none" xmlns="http://www.w3.org/2000/svg">
<path fill-rule="evenodd" clip-rule="evenodd" d="M9.30795 9.97463C9.97978 9.97463 10.5266 10.5176 10.5266 11.1849V12.9014C10.5266 13.0448 10.6416 13.1597 10.7889 13.1631H11.8524C12.6906 13.1631 13.3719 12.4901 13.3719 11.6631V6.79512C13.368 6.51054 13.2324 6.2427 12.9997 6.0647L9.32078 3.13072C8.82695 2.73955 8.13614 2.73955 7.64063 3.13183L3.98683 6.06358C3.74521 6.24716 3.60962 6.51501 3.60683 6.80461V11.6631C3.60683 12.4901 4.28815 13.1631 5.12627 13.1631H6.19987C6.35109 13.1631 6.47385 13.0431 6.47385 12.8958C6.47385 12.8634 6.47775 12.831 6.48445 12.8004V11.1849C6.48445 10.5215 7.02794 9.97909 7.69476 9.97463H9.30795ZM11.8524 14.0001H10.7788C10.1639 13.9856 9.68962 13.5029 9.68962 12.9014V11.1849C9.68962 10.979 9.51831 10.8116 9.30795 10.8116H7.69755C7.49165 10.8127 7.32145 10.9807 7.32145 11.1849V12.8958C7.32145 12.9376 7.31587 12.9778 7.30416 13.0157C7.24389 13.5682 6.77182 14.0001 6.19987 14.0001H5.12627C3.82668 14.0001 2.76982 12.9516 2.76982 11.6631V6.8007C2.7754 6.24605 3.03097 5.73826 3.47235 5.40402L7.1189 2.47729C7.92187 1.84117 9.04066 1.84117 9.84196 2.47618L13.5147 5.40569C13.9461 5.73436 14.2016 6.24103 14.2089 6.78898V11.6631C14.2089 12.9516 13.152 14.0001 11.8524 14.0001Z" fill="black"/>
</svg>
