<svg width="44" height="44" viewBox="0 0 44 44" fill="none" xmlns="http://www.w3.org/2000/svg">
<g filter="url(#filter0_b_28313_5211)">
<circle cx="22" cy="22" r="22" fill="black"/>
</g>
<path d="M28.3952 17.0221C27.6005 17.0237 26.9543 16.3802 26.9528 15.5855C26.9512 14.7908 27.5947 14.1446 28.3898 14.143C29.1848 14.1415 29.831 14.7853 29.8326 15.58C29.8338 16.3748 29.1903 17.0206 28.3952 17.0221Z" fill="white"/>
<path fill-rule="evenodd" clip-rule="evenodd" d="M22.0115 28.161C18.6091 28.1676 15.8451 25.4149 15.8385 22.0117C15.8319 18.6092 18.5854 15.8448 21.9878 15.8382C25.3909 15.8316 28.1553 18.5859 28.1619 21.9879C28.1685 25.3912 25.4143 28.1544 22.0115 28.161ZM21.992 18.0004C19.7837 18.0042 17.9959 19.7986 17.9998 22.0074C18.0041 24.2166 19.7988 26.0039 22.0072 25.9996C24.2164 25.9954 26.0041 24.2014 25.9998 21.9922C25.9955 19.783 24.2008 17.9961 21.992 18.0004Z" fill="white"/>
<path fill-rule="evenodd" clip-rule="evenodd" d="M14.1192 10.6465C14.8813 10.3479 15.7533 10.1434 17.0302 10.0831C18.3101 10.0217 18.7187 10.0077 21.9769 10.0015C25.2358 9.99523 25.6444 10.0077 26.9244 10.0644C28.2016 10.1196 29.0741 10.321 29.8377 10.6165C30.6277 10.921 31.298 11.3308 31.966 11.996C32.6339 12.662 33.0453 13.33 33.3536 14.1189C33.6518 14.8817 33.8563 15.7531 33.917 17.0307C33.9776 18.3102 33.9924 18.7185 33.9986 21.9771C34.0048 25.2353 33.9916 25.6443 33.9356 26.925C33.88 28.2014 33.679 29.0743 33.3835 29.8375C33.0783 30.6276 32.6693 31.2979 32.004 31.9659C31.3388 32.6342 30.6701 33.0452 29.8812 33.3539C29.1184 33.6517 28.2471 33.8562 26.9702 33.9173C25.6903 33.9779 25.2817 33.9923 22.0224 33.9985C18.7646 34.0048 18.356 33.9923 17.076 33.9359C15.7988 33.88 14.926 33.6789 14.1627 33.3838C13.3727 33.0782 12.7024 32.6696 12.0345 32.004C11.3661 31.3383 10.9544 30.67 10.6465 29.8811C10.3479 29.1186 10.1441 28.2469 10.0831 26.9705C10.022 25.6901 10.0077 25.2811 10.0014 22.0229C9.9952 18.7644 10.008 18.3561 10.064 17.0762C10.1204 15.7985 10.3206 14.9261 10.6161 14.1621C10.9213 13.3724 11.3303 12.7025 11.9964 12.0341C12.6616 11.3662 13.3303 10.954 14.1192 10.6465ZM14.9415 31.3679C15.3649 31.5308 16.0002 31.7252 17.1701 31.7761C18.4361 31.8309 18.8151 31.843 22.0185 31.8368C25.223 31.8309 25.6021 31.8173 26.8676 31.7579C28.0363 31.7022 28.6716 31.5055 29.0939 31.3407C29.6541 31.1218 30.0531 30.8601 30.4722 30.4406C30.8913 30.0195 31.1506 29.6194 31.3676 29.0591C31.5309 28.6354 31.7249 27.9996 31.7758 26.8297C31.8314 25.5646 31.8431 25.1851 31.8368 21.9809C31.831 18.7776 31.8174 18.3981 31.7572 17.1325C31.7019 15.9634 31.5056 15.3281 31.3404 14.9062C31.1215 14.3452 30.8606 13.9471 30.4399 13.5275C30.0192 13.108 29.6191 12.8494 29.0581 12.6325C28.6355 12.4688 27.9994 12.2752 26.8303 12.2243C25.5643 12.1687 25.1849 12.1574 21.9808 12.1636C18.7774 12.1698 18.3984 12.1826 17.1328 12.2425C15.9633 12.2981 15.3288 12.4945 14.9057 12.6597C14.3459 12.8786 13.947 13.1387 13.5275 13.5598C13.1087 13.9809 12.8494 14.3802 12.6324 14.9416C12.4699 15.3646 12.2743 16.0007 12.2242 17.1699C12.169 18.4358 12.1573 18.8153 12.1635 22.0187C12.1694 25.2228 12.183 25.6023 12.2425 26.8671C12.2973 28.037 12.4952 28.6715 12.6597 29.0949C12.8785 29.6544 13.1394 30.0533 13.5597 30.4729C13.9808 30.8908 14.3809 31.1509 14.9415 31.3679Z" fill="white"/>
<defs>
<filter id="filter0_b_28313_5211" x="-25" y="-25" width="94" height="94" filterUnits="userSpaceOnUse" color-interpolation-filters="sRGB">
<feFlood flood-opacity="0" result="BackgroundImageFix"/>
<feGaussianBlur in="BackgroundImageFix" stdDeviation="12.5"/>
<feComposite in2="SourceAlpha" operator="in" result="effect1_backgroundBlur_28313_5211"/>
<feBlend mode="normal" in="SourceGraphic" in2="effect1_backgroundBlur_28313_5211" result="shape"/>
</filter>
</defs>
</svg>
