<svg width="17" height="16" viewBox="0 0 17 16" fill="none" xmlns="http://www.w3.org/2000/svg">
<path fill-rule="evenodd" clip-rule="evenodd" d="M7.65291 13.404C7.99825 13.7887 8.44158 14 8.90158 14H8.90225C9.36425 14 9.80958 13.7887 10.1556 13.4034C10.3409 13.1987 10.6569 13.182 10.8616 13.3667C11.0669 13.5514 11.0836 13.868 10.8989 14.0727C10.3602 14.6707 9.65158 15 8.90225 15H8.90091C8.15358 14.9994 7.44625 14.67 6.90958 14.072C6.72491 13.8674 6.74158 13.5507 6.94691 13.3667C7.15225 13.1814 7.46825 13.198 7.65291 13.404ZM8.93478 0.666687C11.8981 0.666687 13.8888 2.97469 13.8888 5.13002C13.8888 6.23869 14.1708 6.70869 14.4701 7.20735C14.7661 7.69935 15.1014 8.25802 15.1014 9.31402C14.8688 12.012 12.0521 12.232 8.93478 12.232C5.81745 12.232 3.00011 12.012 2.7701 9.35669C2.76811 8.25802 3.10345 7.69935 3.39945 7.20735L3.50394 7.03146C3.76123 6.58926 3.98078 6.10826 3.98078 5.13002C3.98078 2.97469 5.97145 0.666687 8.93478 0.666687ZM8.93478 1.66669C6.60478 1.66669 4.98078 3.49202 4.98078 5.13002C4.98078 6.51602 4.59611 7.15669 4.25611 7.72202C3.98345 8.17602 3.76811 8.53469 3.76811 9.31402C3.87945 10.5714 4.70945 11.232 8.93478 11.232C13.1368 11.232 13.9928 10.542 14.1034 9.27069C14.1014 8.53469 13.8861 8.17602 13.6134 7.72202C13.2734 7.15669 12.8888 6.51602 12.8888 5.13002C12.8888 3.49202 11.2648 1.66669 8.93478 1.66669Z" fill="black"/>
</svg>
