<svg width="17" height="16" viewBox="0 0 17 16" fill="none" xmlns="http://www.w3.org/2000/svg">
<path d="M8.63671 14.5C4.87004 14.5 1.80338 11.4334 1.80338 7.66671C1.80338 3.90004 4.87004 0.833374 8.63671 0.833374C12.4034 0.833374 15.47 3.90004 15.47 7.66671C15.47 11.4334 12.4034 14.5 8.63671 14.5ZM8.63671 1.83337C5.41671 1.83337 2.80338 4.45337 2.80338 7.66671C2.80338 10.88 5.41671 13.5 8.63671 13.5C11.8567 13.5 14.47 10.88 14.47 7.66671C14.47 4.45337 11.8567 1.83337 8.63671 1.83337Z" fill="black"/>
<path d="M15.6367 15.1667C15.51 15.1667 15.3834 15.12 15.2834 15.02L13.95 13.6867C13.7567 13.4934 13.7567 13.1734 13.95 12.98C14.1434 12.7867 14.4634 12.7867 14.6567 12.98L15.99 14.3134C16.1834 14.5067 16.1834 14.8267 15.99 15.02C15.89 15.12 15.7634 15.1667 15.6367 15.1667Z" fill="black"/>
</svg>
