<svg width="44" height="44" viewBox="0 0 44 44" fill="none" xmlns="http://www.w3.org/2000/svg">
<g filter="url(#filter0_b_28313_5220)">
<circle cx="22" cy="22" r="22" fill="black"/>
</g>
<path d="M33.9142 27.4683C33.7474 27.0144 33.4298 26.7715 33.068 26.5703C32.9999 26.5305 32.9374 26.4986 32.884 26.474C32.7761 26.4182 32.6657 26.3642 32.556 26.3072C31.4283 25.7091 30.5478 24.9547 29.937 24.0604C29.7636 23.8086 29.6132 23.5418 29.4876 23.263C29.4354 23.114 29.4379 23.0293 29.4753 22.952C29.5124 22.8925 29.5615 22.8413 29.6194 22.8017C29.8132 22.6736 30.0131 22.5435 30.1486 22.4558C30.3902 22.2994 30.5815 22.1755 30.7048 22.0878C31.1677 21.7639 31.4915 21.4198 31.6938 21.0352C31.835 20.7695 31.9173 20.4765 31.9352 20.1761C31.9531 19.8758 31.9061 19.5751 31.7975 19.2945C31.4909 18.4873 30.7287 17.9861 29.8052 17.9861C29.6104 17.986 29.4162 18.0065 29.2257 18.0475C29.1748 18.0585 29.1239 18.0702 29.0743 18.0831C29.0829 17.531 29.0706 16.9483 29.0215 16.3748C28.8474 14.3586 28.1416 13.3018 27.4058 12.459C26.9346 11.9309 26.3796 11.4841 25.763 11.1366C24.6464 10.4987 23.3802 10.1748 21.9999 10.1748C20.6196 10.1748 19.3595 10.4987 18.2416 11.1366C17.6236 11.4842 17.0675 11.9319 16.5958 12.4615C15.86 13.3042 15.1542 14.3629 14.9801 16.3773C14.931 16.9508 14.9187 17.5365 14.9267 18.0855C14.877 18.0726 14.8268 18.061 14.7759 18.0499C14.5854 18.009 14.3912 17.9884 14.1964 17.9886C13.2723 17.9886 12.5089 18.4897 12.2035 19.2969C12.0944 19.5776 12.0469 19.8786 12.0644 20.1792C12.0818 20.4799 12.1638 20.7733 12.3047 21.0395C12.5077 21.4241 12.8314 21.7682 13.2944 22.0921C13.417 22.1779 13.609 22.3018 13.8506 22.4601C13.9812 22.5447 14.1719 22.6686 14.3589 22.7925C14.4243 22.8349 14.4799 22.8907 14.522 22.9563C14.5612 23.0367 14.5625 23.1232 14.5042 23.2826C14.3803 23.5555 14.2324 23.8168 14.0621 24.0635C13.4649 24.9375 12.6101 25.6785 11.5186 26.2716C10.9404 26.5783 10.3394 26.7832 10.0856 27.4732C9.89424 27.994 10.0193 28.5865 10.5056 29.0858C10.6841 29.2721 10.891 29.4289 11.1188 29.5501C11.5927 29.8106 12.0965 30.0123 12.6193 30.1506C12.7271 30.1784 12.8295 30.2243 12.9222 30.2862C13.0994 30.4413 13.0743 30.675 13.3103 31.0173C13.4288 31.1942 13.5794 31.3473 13.7543 31.4687C14.2497 31.811 14.8065 31.8325 15.3964 31.8552C15.9293 31.8754 16.5333 31.8987 17.2231 32.1263C17.5089 32.2207 17.8056 32.4035 18.1496 32.617C18.9756 33.1249 20.1063 33.8198 21.9987 33.8198C23.891 33.8198 25.0297 33.1212 25.8618 32.6115C26.2033 32.4017 26.4983 32.2207 26.776 32.1287C27.4659 31.9006 28.0699 31.8779 28.6027 31.8576C29.1926 31.8349 29.7494 31.8135 30.2449 31.4712C30.452 31.3267 30.6245 31.1382 30.7501 30.9192C30.92 30.6303 30.9157 30.4285 31.0751 30.2874C31.162 30.2284 31.2582 30.1845 31.3596 30.1573C31.8895 30.0186 32.4003 29.815 32.8804 29.5513C33.1223 29.4215 33.3401 29.2509 33.5242 29.0471L33.5303 29.0398C33.9866 28.5515 34.1012 27.9762 33.9142 27.4683ZM32.2322 28.3724C31.2063 28.9392 30.5245 28.8785 29.9941 29.2201C29.5434 29.5102 29.8101 30.1359 29.4827 30.3616C29.0804 30.6395 27.8914 30.342 26.3554 30.8492C25.0885 31.2682 24.2803 32.4728 22.0017 32.4728C19.7231 32.4728 18.9339 31.2706 17.6462 30.8462C16.1132 30.3389 14.9218 30.6364 14.5189 30.3585C14.1921 30.1328 14.4576 29.5072 14.0075 29.217C13.4765 28.8754 12.7946 28.9361 11.7694 28.3724C11.1163 28.0118 11.4867 27.7885 11.7044 27.683C15.4203 25.8833 16.0133 23.1048 16.0397 22.8987C16.0715 22.649 16.1071 22.4527 15.8324 22.1988C15.5669 21.9534 14.3889 21.2241 14.0621 20.996C13.5213 20.6181 13.2834 20.2409 13.4587 19.7772C13.5814 19.4564 13.8806 19.3356 14.1946 19.3356C14.2938 19.3359 14.3927 19.347 14.4895 19.3687C15.0831 19.4975 15.6595 19.795 15.9924 19.8753C16.0325 19.8856 16.0737 19.8912 16.1151 19.8919C16.2929 19.8919 16.3554 19.8023 16.3432 19.5987C16.3052 18.9491 16.2132 17.6831 16.3156 16.4999C16.456 14.872 16.9803 14.0654 17.6033 13.3521C17.9025 13.0092 19.3086 11.523 21.9974 11.523C24.6863 11.523 26.096 13.0031 26.3952 13.3447C27.0189 14.0581 27.5437 14.8647 27.6829 16.4926C27.7853 17.6758 27.697 18.9424 27.6553 19.5913C27.6412 19.8054 27.7056 19.8845 27.8835 19.8845C27.9248 19.8839 27.966 19.8783 28.0061 19.868C28.3397 19.7876 28.9161 19.4901 29.5096 19.3613C29.6065 19.3396 29.7054 19.3285 29.8046 19.3282C30.1204 19.3282 30.4178 19.4509 30.5404 19.7698C30.7158 20.2335 30.4791 20.6108 29.9377 20.9886C29.6108 21.2168 28.4329 21.9455 28.1674 22.1914C27.892 22.4454 27.9282 22.6417 27.9601 22.8913C27.9865 23.1005 28.5788 25.8791 32.2954 27.6756C32.5149 27.7854 32.8853 28.0087 32.2322 28.3724Z" fill="white"/>
<defs>
<filter id="filter0_b_28313_5220" x="-25" y="-25" width="94" height="94" filterUnits="userSpaceOnUse" color-interpolation-filters="sRGB">
<feFlood flood-opacity="0" result="BackgroundImageFix"/>
<feGaussianBlur in="BackgroundImageFix" stdDeviation="12.5"/>
<feComposite in2="SourceAlpha" operator="in" result="effect1_backgroundBlur_28313_5220"/>
<feBlend mode="normal" in="SourceGraphic" in2="effect1_backgroundBlur_28313_5220" result="shape"/>
</filter>
</defs>
</svg>
