<svg width="336" height="338" viewBox="0 0 336 338" fill="none" xmlns="http://www.w3.org/2000/svg">
<rect x="26.3755" width="280.71" height="337.806" rx="39.1671" fill="#111111"/>
<rect x="55.8909" y="29.0786" width="221.68" height="34.028" rx="9.21578" fill="url(#paint0_linear_28764_3282)"/>
<rect y="79.811" width="335.973" height="51.3514" rx="9.21578" fill="black"/>
<path d="M46.7761 108.098C45.2601 108.098 44.3032 107.109 44.0774 105.625L44.916 105.077C45.0128 106.335 45.5719 107.206 46.7868 107.206C48.0018 107.206 48.3673 106.658 48.3673 105.012V100.787H49.3027V105.174C49.3027 107.281 48.5501 108.098 46.7761 108.098ZM52.8234 108.098C51.3827 108.098 50.372 107.034 50.372 105.389C50.372 103.744 51.3827 102.679 52.8234 102.679C54.2641 102.679 55.2856 103.744 55.2856 105.389C55.2856 107.034 54.2641 108.098 52.8234 108.098ZM52.8234 107.313C53.7158 107.313 54.3394 106.701 54.3394 105.389C54.3394 104.066 53.7158 103.464 52.8234 103.464C51.9418 103.464 51.3289 104.066 51.3289 105.389C51.3289 106.701 51.9418 107.313 52.8234 107.313ZM57.4163 107.991H56.4809V100.787H57.4163V104.142C57.5991 103.346 58.0937 102.679 59.0936 102.679C60.4161 102.679 61.2332 103.755 61.2332 105.4C61.2332 107.045 60.4161 108.12 59.0936 108.12C58.0937 108.12 57.5991 107.453 57.4163 106.658V107.991ZM57.4163 105.776C57.4163 106.636 57.7819 107.335 58.7711 107.335C59.6097 107.335 60.2871 106.733 60.2871 105.4C60.2871 104.077 59.6097 103.475 58.7711 103.475C57.7819 103.475 57.4163 104.174 57.4163 105.034V105.776ZM65.7984 108.098C64.9168 108.098 64.4222 107.593 64.4222 106.905C64.4222 106.206 64.949 105.765 65.6909 105.432L67.5724 104.593C67.5402 103.98 67.2499 103.529 66.4328 103.529C65.6909 103.529 65.1963 103.959 64.9275 104.529L64.2932 103.873C64.605 103.335 65.3791 102.679 66.5403 102.679C67.8197 102.679 68.5078 103.443 68.5078 104.679V106.819C68.5078 107.066 68.6046 107.141 68.7981 107.141H69.1315V107.991H68.5294C67.9918 107.991 67.6047 107.733 67.6047 107.002V106.636C67.4327 107.324 66.8736 108.098 65.7984 108.098ZM65.3683 106.754C65.3683 107.109 65.6156 107.324 66.0995 107.324C66.9811 107.324 67.6047 106.744 67.6047 105.991V105.271L66.0887 105.98C65.5941 106.217 65.3683 106.432 65.3683 106.754ZM72.9104 107.991H71.9212L74.8242 100.787H75.7596L78.6625 107.991H77.6304L76.8455 105.98H73.6952L72.9104 107.991ZM74.9102 102.873L74.0178 105.152H76.5229L75.6305 102.873L75.2757 101.744L74.9102 102.873ZM80.3583 107.991H79.4229V100.787H80.3583V107.991ZM83.9792 108.098C82.5062 108.098 81.4848 107.045 81.4848 105.389C81.4848 103.744 82.4954 102.679 83.9254 102.679C85.3984 102.679 86.2908 103.658 86.2908 105.185C86.2908 105.346 86.2693 105.507 86.2478 105.604H82.3879C82.4417 106.701 83.0545 107.324 83.9792 107.324C85.0221 107.324 85.4414 106.754 85.6457 106.303L86.2155 106.948C85.8285 107.571 85.1081 108.098 83.9792 108.098ZM83.9254 103.464C83.0868 103.464 82.5277 103.959 82.4094 104.926H85.4522C85.3554 103.97 84.7963 103.464 83.9254 103.464ZM88.4116 107.991H87.4762V102.787H88.4116V104.174C88.6159 103.367 89.1535 102.669 90.0351 102.669C90.5942 102.669 91.1318 103.066 91.1318 103.798C91.1318 104.238 91.0135 104.561 90.9275 104.69H89.9061C90.0781 104.539 90.2179 104.217 90.2179 103.927C90.2179 103.626 90.0566 103.367 89.6803 103.367C89.0137 103.367 88.4116 104.152 88.4116 105.045V107.991ZM93.7434 108.109C92.894 108.109 92.2919 107.55 92.2919 106.658V103.518H91.4532V102.787H92.2919V102.12L93.2273 101.432V102.787H94.9368V103.518H93.2273V106.378C93.2273 107.045 93.5391 107.206 93.9476 107.206C94.41 107.206 94.7325 106.819 94.8723 106.496L95.1841 107.421C94.9583 107.776 94.4637 108.109 93.7434 108.109ZM97.8973 108.098C96.8114 108.098 95.8222 107.625 95.4674 106.658L96.1448 106.131C96.3276 106.722 96.8974 107.313 97.9296 107.313C98.5424 107.313 98.951 107.077 98.951 106.614C98.951 106.141 98.4779 105.991 97.8651 105.851L97.1769 105.69C96.4351 105.518 95.6287 105.163 95.6287 104.206C95.6287 103.26 96.3598 102.679 97.4887 102.679C98.5854 102.679 99.3488 103.26 99.6391 103.948L98.9295 104.475C98.6714 103.862 98.1769 103.475 97.435 103.475C96.8974 103.475 96.5103 103.712 96.5103 104.152C96.5103 104.615 96.8544 104.776 97.564 104.948L98.2306 105.12C99.4026 105.4 99.7896 105.883 99.7896 106.604C99.7896 107.636 98.908 108.098 97.8973 108.098Z" fill="white"/>
<path d="M131.153 108.228H130.285V102.737H129.087V102.138C129.626 102.138 130.105 101.978 130.425 101.539H131.153V108.228ZM135.53 108.228H134.661V103.396H135.53V104.684C135.72 103.935 136.239 103.296 137.187 103.296C138.136 103.296 138.725 103.865 138.725 104.893V108.228H137.866V105.103C137.866 104.474 137.616 104.035 136.798 104.035C135.869 104.035 135.53 104.684 135.53 105.492V108.228ZM142.051 108.328C140.683 108.328 139.735 107.349 139.735 105.812C139.735 104.284 140.673 103.296 142.001 103.296C143.369 103.296 144.198 104.205 144.198 105.622C144.198 105.772 144.178 105.922 144.158 106.012H140.573C140.623 107.03 141.192 107.609 142.051 107.609C143.019 107.609 143.409 107.08 143.598 106.661L144.128 107.26C143.768 107.839 143.099 108.328 142.051 108.328ZM142.001 104.025C141.222 104.025 140.703 104.484 140.593 105.383H143.419C143.329 104.494 142.81 104.025 142.001 104.025ZM146.911 108.228H145.783L144.525 103.396H145.493L146.122 106.371L146.352 107.599L146.651 106.371L147.53 103.396H148.598L149.467 106.371L149.776 107.599L150.006 106.371L150.625 103.396H151.593L150.345 108.228H149.207L148.379 105.403L148.069 104.115L147.74 105.403L146.911 108.228ZM155.517 102.617H154.648V101.539H155.517V102.617ZM154.109 110.185C153.31 110.185 152.891 109.746 152.681 109.466L153.161 108.757C153.32 109.057 153.61 109.346 154.039 109.346C154.449 109.346 154.648 109.147 154.648 108.567V103.396H155.517V108.627C155.517 109.636 154.878 110.185 154.109 110.185ZM158.769 108.328C157.431 108.328 156.493 107.339 156.493 105.812C156.493 104.284 157.431 103.296 158.769 103.296C160.107 103.296 161.055 104.284 161.055 105.812C161.055 107.339 160.107 108.328 158.769 108.328ZM158.769 107.599C159.598 107.599 160.177 107.03 160.177 105.812C160.177 104.584 159.598 104.025 158.769 104.025C157.95 104.025 157.381 104.584 157.381 105.812C157.381 107.03 157.95 107.599 158.769 107.599ZM163.034 108.228H162.165V101.539H163.034V104.654C163.204 103.915 163.663 103.296 164.591 103.296C165.819 103.296 166.578 104.294 166.578 105.822C166.578 107.349 165.819 108.348 164.591 108.348C163.663 108.348 163.204 107.729 163.034 106.99V108.228ZM163.034 106.171C163.034 106.97 163.373 107.619 164.292 107.619C165.071 107.619 165.7 107.06 165.7 105.822C165.7 104.594 165.071 104.035 164.292 104.035C163.373 104.035 163.034 104.684 163.034 105.482V106.171ZM171.067 108.228H170.198V104.075H169.41V103.396H170.198V102.947C170.198 101.978 170.817 101.439 171.726 101.439C172.465 101.439 172.924 101.838 173.123 102.148L172.644 102.767C172.455 102.417 172.145 102.158 171.716 102.158C171.267 102.158 171.067 102.417 171.067 102.877V103.396H172.624V104.075H171.067V108.228ZM175.178 108.328C173.84 108.328 172.902 107.339 172.902 105.812C172.902 104.284 173.84 103.296 175.178 103.296C176.516 103.296 177.464 104.284 177.464 105.812C177.464 107.339 176.516 108.328 175.178 108.328ZM175.178 107.599C176.007 107.599 176.586 107.03 176.586 105.812C176.586 104.584 176.007 104.025 175.178 104.025C174.359 104.025 173.79 104.584 173.79 105.812C173.79 107.03 174.359 107.599 175.178 107.599ZM179.423 108.228H178.555V103.396H179.423V104.684C179.613 103.935 180.112 103.286 180.931 103.286C181.45 103.286 181.949 103.655 181.949 104.334C181.949 104.744 181.839 105.043 181.759 105.163H180.811C180.971 105.023 181.101 104.724 181.101 104.454C181.101 104.175 180.951 103.935 180.601 103.935C179.982 103.935 179.423 104.664 179.423 105.492V108.228ZM185.929 108.228H185.06V101.539H187.736C189.054 101.539 190.092 102.268 190.092 103.805C190.092 105.233 189.054 105.962 187.736 105.962H185.929V108.228ZM187.596 102.308H185.929V105.193H187.596C188.405 105.193 189.193 104.893 189.193 103.805C189.193 102.607 188.405 102.308 187.596 102.308ZM191.874 108.228H191.005V101.539H191.874V108.228ZM194.178 108.328C193.359 108.328 192.9 107.859 192.9 107.22C192.9 106.571 193.389 106.161 194.078 105.852L195.825 105.073C195.795 104.504 195.525 104.085 194.767 104.085C194.078 104.085 193.619 104.484 193.369 105.013L192.78 104.404C193.069 103.905 193.788 103.296 194.867 103.296C196.055 103.296 196.694 104.005 196.694 105.153V107.14C196.694 107.369 196.783 107.439 196.963 107.439H197.273V108.228H196.714C196.214 108.228 195.855 107.988 195.855 107.31V106.97C195.695 107.609 195.176 108.328 194.178 108.328ZM193.778 107.08C193.778 107.409 194.008 107.609 194.457 107.609C195.276 107.609 195.855 107.07 195.855 106.371V105.702L194.447 106.361C193.988 106.581 193.778 106.78 193.778 107.08ZM198.851 109.805C198.162 109.805 197.663 109.426 197.453 109.027L197.923 108.368C198.152 108.757 198.402 109.047 198.861 109.047C199.25 109.047 199.51 108.857 199.7 108.268L199.799 107.958L199.26 107.968L197.633 103.396H198.561L199.6 106.501L199.939 107.539L200.279 106.501L201.307 103.396H202.236L200.379 108.627C200.069 109.516 199.53 109.805 198.851 109.805ZM203.817 108.228H202.949V101.539H203.817V104.654C203.987 103.915 204.446 103.296 205.375 103.296C206.603 103.296 207.361 104.294 207.361 105.822C207.361 107.349 206.603 108.348 205.375 108.348C204.446 108.348 203.987 107.729 203.817 106.99V108.228ZM203.817 106.171C203.817 106.97 204.157 107.619 205.075 107.619C205.854 107.619 206.483 107.06 206.483 105.822C206.483 104.594 205.854 104.035 205.075 104.035C204.157 104.035 203.817 104.684 203.817 105.482V106.171ZM209.417 108.328C208.598 108.328 208.139 107.859 208.139 107.22C208.139 106.571 208.628 106.161 209.317 105.852L211.064 105.073C211.034 104.504 210.764 104.085 210.006 104.085C209.317 104.085 208.857 104.484 208.608 105.013L208.019 104.404C208.308 103.905 209.027 103.296 210.105 103.296C211.294 103.296 211.932 104.005 211.932 105.153V107.14C211.932 107.369 212.022 107.439 212.202 107.439H212.512V108.228H211.952C211.453 108.228 211.094 107.988 211.094 107.31V106.97C210.934 107.609 210.415 108.328 209.417 108.328ZM209.017 107.08C209.017 107.409 209.247 107.609 209.696 107.609C210.515 107.609 211.094 107.07 211.094 106.371V105.702L209.686 106.361C209.227 106.581 209.017 106.78 209.017 107.08ZM215.505 108.328C214.117 108.328 213.228 107.349 213.228 105.812C213.228 104.284 214.117 103.296 215.505 103.296C216.763 103.296 217.501 104.025 217.731 104.993L216.882 105.343C216.782 104.574 216.383 104.025 215.515 104.025C214.636 104.025 214.107 104.674 214.107 105.812C214.107 106.95 214.636 107.609 215.515 107.609C216.383 107.609 216.782 107.05 216.882 106.281L217.731 106.631C217.501 107.599 216.763 108.328 215.505 108.328ZM219.602 108.228H218.733V101.539H219.602V104.933L219.572 105.612L220.281 104.913L221.868 103.396H222.957L220.97 105.273L222.987 108.228H221.938L220.371 105.812L219.602 106.541V108.228ZM228.634 108.328C227.376 108.328 226.228 107.849 225.789 106.611L226.447 106.032C226.757 107.12 227.795 107.509 228.634 107.509C229.383 107.509 230.012 107.22 230.012 106.491C230.012 105.722 229.423 105.532 228.534 105.323L227.905 105.183C227.017 104.983 226.008 104.584 226.008 103.326C226.008 102.108 227.066 101.449 228.235 101.449C229.443 101.449 230.401 101.978 230.81 102.977L230.082 103.556C229.762 102.647 229.083 102.278 228.215 102.278C227.476 102.278 226.927 102.647 226.927 103.266C226.927 103.935 227.416 104.185 228.185 104.374L228.913 104.554C229.862 104.784 230.9 105.153 230.9 106.471C230.9 107.629 229.932 108.328 228.634 108.328ZM232.901 102.617H232.032V101.539H232.901V102.617ZM232.901 108.228H232.032V103.396H232.901V108.228ZM235.075 108.228H234.206V103.396H235.075V104.684C235.265 103.935 235.784 103.296 236.732 103.296C237.681 103.296 238.27 103.865 238.27 104.893V108.228H237.411V105.103C237.411 104.474 237.162 104.035 236.343 104.035C235.414 104.035 235.075 104.684 235.075 105.492V108.228ZM241.387 106.75C241.038 106.75 240.718 106.681 240.449 106.551C240.329 106.71 240.189 106.94 240.189 107.15C240.189 107.409 240.329 107.539 240.828 107.539H242.286C243.164 107.539 243.714 107.889 243.714 108.617C243.714 109.536 242.815 110.185 241.188 110.185C239.95 110.185 239.171 109.776 239.171 109.137C239.171 108.687 239.58 108.418 239.95 108.268C239.64 108.168 239.48 107.938 239.48 107.619C239.48 107.24 239.77 106.82 240.239 106.441C239.76 106.141 239.48 105.632 239.48 105.023C239.48 104.015 240.249 103.296 241.387 103.296C241.707 103.296 241.996 103.356 242.246 103.456L242.545 102.298L243.444 102.617L242.555 103.616C243.015 103.915 243.294 104.424 243.294 105.023C243.294 106.032 242.526 106.75 241.387 106.75ZM241.387 106.082C241.996 106.082 242.456 105.682 242.456 105.023C242.456 104.364 241.996 103.965 241.387 103.965C240.788 103.965 240.319 104.364 240.319 105.023C240.319 105.682 240.788 106.082 241.387 106.082ZM241.188 109.496C242.286 109.496 242.905 109.216 242.905 108.737C242.905 108.428 242.665 108.288 242.176 108.288H240.199C240.04 108.428 239.87 108.637 239.87 108.867C239.87 109.256 240.319 109.496 241.188 109.496ZM246.52 108.328C245.152 108.328 244.203 107.349 244.203 105.812C244.203 104.284 245.142 103.296 246.47 103.296C247.838 103.296 248.666 104.205 248.666 105.622C248.666 105.772 248.646 105.922 248.626 106.012H245.042C245.092 107.03 245.661 107.609 246.52 107.609C247.488 107.609 247.878 107.08 248.067 106.661L248.596 107.26C248.237 107.839 247.568 108.328 246.52 108.328ZM246.47 104.025C245.691 104.025 245.172 104.484 245.062 105.383H247.887C247.798 104.494 247.278 104.025 246.47 104.025ZM250.636 108.228H249.767V103.396H250.636V104.684C250.825 103.935 251.324 103.286 252.143 103.286C252.662 103.286 253.161 103.655 253.161 104.334C253.161 104.744 253.052 105.043 252.972 105.163H252.023C252.183 105.023 252.313 104.724 252.313 104.454C252.313 104.175 252.163 103.935 251.814 103.935C251.195 103.935 250.636 104.664 250.636 105.492V108.228ZM254.206 108.228H253.157V106.93H254.206V108.228ZM256.351 108.228H255.302V106.93H256.351V108.228Z" fill="white"/>
<rect x="12.5597" y="97.7534" width="16.3277" height="16.086" rx="3.83991" fill="url(#paint1_linear_28764_3282)"/>
<path d="M17.929 106.114L19.7478 107.649L23.3856 103.81" stroke="#FFFEFF" stroke-width="1.15197" stroke-linecap="round" stroke-linejoin="round"/>
<rect y="228.916" width="335.973" height="51.3514" rx="9.21578" fill="black"/>
<path d="M46.7761 257.203C45.2601 257.203 44.3032 256.214 44.0774 254.73L44.916 254.181C45.0128 255.439 45.5719 256.31 46.7868 256.31C48.0018 256.31 48.3673 255.762 48.3673 254.117V249.892H49.3027V254.278C49.3027 256.386 48.5501 257.203 46.7761 257.203ZM52.8234 257.203C51.3827 257.203 50.372 256.138 50.372 254.493C50.372 252.848 51.3827 251.784 52.8234 251.784C54.2641 251.784 55.2856 252.848 55.2856 254.493C55.2856 256.138 54.2641 257.203 52.8234 257.203ZM52.8234 256.418C53.7158 256.418 54.3394 255.805 54.3394 254.493C54.3394 253.171 53.7158 252.569 52.8234 252.569C51.9418 252.569 51.3289 253.171 51.3289 254.493C51.3289 255.805 51.9418 256.418 52.8234 256.418ZM57.4163 257.095H56.4809V249.892H57.4163V253.246C57.5991 252.45 58.0937 251.784 59.0936 251.784C60.4161 251.784 61.2332 252.859 61.2332 254.504C61.2332 256.149 60.4161 257.224 59.0936 257.224C58.0937 257.224 57.5991 256.558 57.4163 255.762V257.095ZM57.4163 254.88C57.4163 255.74 57.7819 256.439 58.7711 256.439C59.6097 256.439 60.2871 255.837 60.2871 254.504C60.2871 253.182 59.6097 252.579 58.7711 252.579C57.7819 252.579 57.4163 253.278 57.4163 254.138V254.88ZM65.7984 257.203C64.9168 257.203 64.4222 256.697 64.4222 256.009C64.4222 255.31 64.949 254.87 65.6909 254.536L67.5724 253.698C67.5402 253.085 67.2499 252.633 66.4328 252.633C65.6909 252.633 65.1963 253.063 64.9275 253.633L64.2932 252.977C64.605 252.44 65.3791 251.784 66.5403 251.784C67.8197 251.784 68.5078 252.547 68.5078 253.784V255.923C68.5078 256.171 68.6046 256.246 68.7981 256.246H69.1315V257.095H68.5294C67.9918 257.095 67.6047 256.837 67.6047 256.106V255.74C67.4327 256.429 66.8736 257.203 65.7984 257.203ZM65.3683 255.859C65.3683 256.214 65.6156 256.429 66.0995 256.429C66.9811 256.429 67.6047 255.848 67.6047 255.095V254.375L66.0887 255.085C65.5941 255.321 65.3683 255.536 65.3683 255.859ZM72.9104 257.095H71.9212L74.8242 249.892H75.7596L78.6625 257.095H77.6304L76.8455 255.085H73.6952L72.9104 257.095ZM74.9102 251.977L74.0178 254.257H76.5229L75.6305 251.977L75.2757 250.848L74.9102 251.977ZM80.3583 257.095H79.4229V249.892H80.3583V257.095ZM83.9792 257.203C82.5062 257.203 81.4848 256.149 81.4848 254.493C81.4848 252.848 82.4954 251.784 83.9254 251.784C85.3984 251.784 86.2908 252.762 86.2908 254.289C86.2908 254.45 86.2693 254.612 86.2478 254.708H82.3879C82.4417 255.805 83.0545 256.429 83.9792 256.429C85.0221 256.429 85.4414 255.859 85.6457 255.407L86.2155 256.052C85.8285 256.676 85.1081 257.203 83.9792 257.203ZM83.9254 252.569C83.0868 252.569 82.5277 253.063 82.4094 254.031H85.4522C85.3554 253.074 84.7963 252.569 83.9254 252.569ZM88.4116 257.095H87.4762V251.891H88.4116V253.278C88.6159 252.472 89.1535 251.773 90.0351 251.773C90.5942 251.773 91.1318 252.171 91.1318 252.902C91.1318 253.343 91.0135 253.665 90.9275 253.794H89.9061C90.0781 253.644 90.2179 253.321 90.2179 253.031C90.2179 252.73 90.0566 252.472 89.6803 252.472C89.0137 252.472 88.4116 253.257 88.4116 254.149V257.095ZM93.7434 257.213C92.894 257.213 92.2919 256.654 92.2919 255.762V252.622H91.4532V251.891H92.2919V251.225L93.2273 250.537V251.891H94.9368V252.622H93.2273V255.482C93.2273 256.149 93.5391 256.31 93.9476 256.31C94.41 256.31 94.7325 255.923 94.8723 255.601L95.1841 256.525C94.9583 256.88 94.4637 257.213 93.7434 257.213ZM97.8973 257.203C96.8114 257.203 95.8222 256.73 95.4674 255.762L96.1448 255.235C96.3276 255.827 96.8974 256.418 97.9296 256.418C98.5424 256.418 98.951 256.181 98.951 255.719C98.951 255.246 98.4779 255.095 97.8651 254.956L97.1769 254.794C96.4351 254.622 95.6287 254.268 95.6287 253.311C95.6287 252.364 96.3598 251.784 97.4887 251.784C98.5854 251.784 99.3488 252.364 99.6391 253.053L98.9295 253.579C98.6714 252.967 98.1769 252.579 97.435 252.579C96.8974 252.579 96.5103 252.816 96.5103 253.257C96.5103 253.719 96.8544 253.88 97.564 254.052L98.2306 254.224C99.4026 254.504 99.7896 254.988 99.7896 255.708C99.7896 256.74 98.908 257.203 97.8973 257.203Z" fill="white"/>
<path d="M131.153 256.714H130.285V251.223H129.087V250.624C129.626 250.624 130.105 250.464 130.425 250.025H131.153V256.714ZM135.53 256.714H134.661V251.882H135.53V253.17C135.72 252.421 136.239 251.782 137.187 251.782C138.136 251.782 138.725 252.351 138.725 253.379V256.714H137.866V253.589C137.866 252.96 137.616 252.521 136.798 252.521C135.869 252.521 135.53 253.17 135.53 253.978V256.714ZM142.051 256.814C140.683 256.814 139.735 255.835 139.735 254.298C139.735 252.77 140.673 251.782 142.001 251.782C143.369 251.782 144.198 252.69 144.198 254.108C144.198 254.258 144.178 254.408 144.158 254.497H140.573C140.623 255.516 141.192 256.095 142.051 256.095C143.019 256.095 143.409 255.566 143.598 255.146L144.128 255.745C143.768 256.325 143.099 256.814 142.051 256.814ZM142.001 252.511C141.222 252.511 140.703 252.97 140.593 253.868H143.419C143.329 252.98 142.81 252.511 142.001 252.511ZM146.911 256.714H145.783L144.525 251.882H145.493L146.122 254.857L146.352 256.085L146.651 254.857L147.53 251.882H148.598L149.467 254.857L149.776 256.085L150.006 254.857L150.625 251.882H151.593L150.345 256.714H149.207L148.379 253.888L148.069 252.601L147.74 253.888L146.911 256.714ZM155.517 251.103H154.648V250.025H155.517V251.103ZM154.109 258.671C153.31 258.671 152.891 258.231 152.681 257.952L153.161 257.243C153.32 257.543 153.61 257.832 154.039 257.832C154.449 257.832 154.648 257.632 154.648 257.053V251.882H155.517V257.113C155.517 258.122 154.878 258.671 154.109 258.671ZM158.769 256.814C157.431 256.814 156.493 255.825 156.493 254.298C156.493 252.77 157.431 251.782 158.769 251.782C160.107 251.782 161.055 252.77 161.055 254.298C161.055 255.825 160.107 256.814 158.769 256.814ZM158.769 256.085C159.598 256.085 160.177 255.516 160.177 254.298C160.177 253.07 159.598 252.511 158.769 252.511C157.95 252.511 157.381 253.07 157.381 254.298C157.381 255.516 157.95 256.085 158.769 256.085ZM163.034 256.714H162.165V250.025H163.034V253.14C163.204 252.401 163.663 251.782 164.591 251.782C165.819 251.782 166.578 252.78 166.578 254.308C166.578 255.835 165.819 256.834 164.591 256.834C163.663 256.834 163.204 256.215 163.034 255.476V256.714ZM163.034 254.657C163.034 255.456 163.373 256.105 164.292 256.105C165.071 256.105 165.7 255.546 165.7 254.308C165.7 253.08 165.071 252.521 164.292 252.521C163.373 252.521 163.034 253.17 163.034 253.968V254.657ZM171.067 256.714H170.198V252.561H169.41V251.882H170.198V251.432C170.198 250.464 170.817 249.925 171.726 249.925C172.465 249.925 172.924 250.324 173.123 250.634L172.644 251.253C172.455 250.903 172.145 250.644 171.716 250.644C171.267 250.644 171.067 250.903 171.067 251.363V251.882H172.624V252.561H171.067V256.714ZM175.178 256.814C173.84 256.814 172.902 255.825 172.902 254.298C172.902 252.77 173.84 251.782 175.178 251.782C176.516 251.782 177.464 252.77 177.464 254.298C177.464 255.825 176.516 256.814 175.178 256.814ZM175.178 256.085C176.007 256.085 176.586 255.516 176.586 254.298C176.586 253.07 176.007 252.511 175.178 252.511C174.359 252.511 173.79 253.07 173.79 254.298C173.79 255.516 174.359 256.085 175.178 256.085ZM179.423 256.714H178.555V251.882H179.423V253.17C179.613 252.421 180.112 251.772 180.931 251.772C181.45 251.772 181.949 252.141 181.949 252.82C181.949 253.23 181.839 253.529 181.759 253.649H180.811C180.971 253.509 181.101 253.21 181.101 252.94C181.101 252.66 180.951 252.421 180.601 252.421C179.982 252.421 179.423 253.15 179.423 253.978V256.714ZM187.935 256.794C185.909 256.794 184.801 255.286 184.801 253.359C184.801 251.432 185.909 249.925 187.935 249.925C189.433 249.925 190.441 250.724 190.871 252.101L190.092 252.611C189.872 251.492 189.213 250.744 187.945 250.744C186.418 250.744 185.719 251.832 185.719 253.359C185.719 254.887 186.418 255.975 187.945 255.975C189.213 255.975 189.872 255.226 190.092 254.108L190.871 254.617C190.441 255.995 189.433 256.794 187.935 256.794ZM193.849 256.814C192.511 256.814 191.572 255.825 191.572 254.298C191.572 252.77 192.511 251.782 193.849 251.782C195.187 251.782 196.135 252.77 196.135 254.298C196.135 255.825 195.187 256.814 193.849 256.814ZM193.849 256.085C194.677 256.085 195.256 255.516 195.256 254.298C195.256 253.07 194.677 252.511 193.849 252.511C193.03 252.511 192.461 253.07 192.461 254.298C192.461 255.516 193.03 256.085 193.849 256.085ZM198.094 256.714H197.225V251.882H198.094V253.16C198.284 252.421 198.783 251.782 199.652 251.782C200.54 251.782 201.029 252.291 201.079 253.2C201.269 252.431 201.768 251.782 202.647 251.782C203.595 251.782 204.084 252.351 204.084 253.369V256.714H203.226V253.579C203.226 252.87 202.886 252.521 202.167 252.521C201.429 252.521 201.089 253.17 201.089 253.978V256.714H200.221V253.579C200.221 252.87 199.891 252.521 199.162 252.521C198.433 252.521 198.094 253.17 198.094 253.978V256.714ZM206.245 256.714H205.376V251.882H206.245V253.16C206.435 252.421 206.934 251.782 207.802 251.782C208.691 251.782 209.18 252.291 209.23 253.2C209.42 252.431 209.919 251.782 210.797 251.782C211.746 251.782 212.235 252.351 212.235 253.369V256.714H211.377V253.579C211.377 252.87 211.037 252.521 210.318 252.521C209.579 252.521 209.24 253.17 209.24 253.978V256.714H208.371V253.579C208.371 252.87 208.042 252.521 207.313 252.521C206.584 252.521 206.245 253.17 206.245 253.978V256.714ZM215.564 256.814C214.196 256.814 213.248 255.835 213.248 254.298C213.248 252.77 214.186 251.782 215.514 251.782C216.882 251.782 217.711 252.69 217.711 254.108C217.711 254.258 217.691 254.408 217.671 254.497H214.087C214.137 255.516 214.706 256.095 215.564 256.095C216.533 256.095 216.922 255.566 217.112 255.146L217.641 255.745C217.281 256.325 216.613 256.814 215.564 256.814ZM215.514 252.511C214.736 252.511 214.216 252.97 214.107 253.868H216.932C216.842 252.98 216.323 252.511 215.514 252.511ZM219.68 256.714H218.811V251.882H219.68V253.17C219.87 252.421 220.369 251.772 221.188 251.772C221.707 251.772 222.206 252.141 222.206 252.82C222.206 253.23 222.096 253.529 222.016 253.649H221.068C221.228 253.509 221.357 253.21 221.357 252.94C221.357 252.66 221.208 252.421 220.858 252.421C220.239 252.421 219.68 253.15 219.68 253.978V256.714ZM224.903 256.814C223.516 256.814 222.627 255.835 222.627 254.298C222.627 252.77 223.516 251.782 224.903 251.782C226.161 251.782 226.9 252.511 227.13 253.479L226.281 253.829C226.181 253.06 225.782 252.511 224.913 252.511C224.035 252.511 223.506 253.16 223.506 254.298C223.506 255.436 224.035 256.095 224.913 256.095C225.782 256.095 226.181 255.536 226.281 254.767L227.13 255.116C226.9 256.085 226.161 256.814 224.903 256.814ZM229.001 251.103H228.132V250.025H229.001V251.103ZM229.001 256.714H228.132V251.882H229.001V256.714ZM231.305 256.814C230.486 256.814 230.027 256.344 230.027 255.706C230.027 255.057 230.516 254.647 231.205 254.338L232.952 253.559C232.922 252.99 232.653 252.571 231.894 252.571C231.205 252.571 230.746 252.97 230.496 253.499L229.907 252.89C230.197 252.391 230.915 251.782 231.994 251.782C233.182 251.782 233.821 252.491 233.821 253.639V255.626C233.821 255.855 233.911 255.925 234.09 255.925H234.4V256.714H233.841C233.341 256.714 232.982 256.474 232.982 255.795V255.456C232.822 256.095 232.303 256.814 231.305 256.814ZM230.905 255.566C230.905 255.895 231.135 256.095 231.584 256.095C232.403 256.095 232.982 255.556 232.982 254.857V254.188L231.574 254.847C231.115 255.067 230.905 255.266 230.905 255.566ZM236.274 256.714H235.406V250.025H236.274V256.714ZM240.742 256.714H239.873V250.025H240.842L242.569 253.339L243.248 254.807L243.917 253.339L245.654 250.025H246.622V256.714H245.754V253.02L245.844 251.213L245.105 252.87L243.667 255.596H242.818L241.381 252.87L240.632 251.213L240.742 253.02V256.714ZM249.949 256.814C248.611 256.814 247.673 255.825 247.673 254.298C247.673 252.77 248.611 251.782 249.949 251.782C251.287 251.782 252.235 252.77 252.235 254.298C252.235 255.825 251.287 256.814 249.949 256.814ZM249.949 256.085C250.777 256.085 251.357 255.516 251.357 254.298C251.357 253.07 250.777 252.511 249.949 252.511C249.13 252.511 248.561 253.07 248.561 254.298C248.561 255.516 249.13 256.085 249.949 256.085ZM255.13 256.834C253.912 256.834 253.154 255.835 253.154 254.308C253.154 252.78 253.912 251.782 255.13 251.782C256.059 251.782 256.518 252.401 256.688 253.14V250.025H257.556V256.714H256.688V255.476C256.518 256.215 256.059 256.834 255.13 256.834ZM254.032 254.308C254.032 255.546 254.661 256.105 255.42 256.105C256.348 256.105 256.688 255.456 256.688 254.657V253.968C256.688 253.17 256.348 252.521 255.42 252.521C254.661 252.521 254.032 253.08 254.032 254.308ZM260.93 256.814C259.562 256.814 258.614 255.835 258.614 254.298C258.614 252.77 259.552 251.782 260.88 251.782C262.248 251.782 263.076 252.69 263.076 254.108C263.076 254.258 263.056 254.408 263.036 254.497H259.452C259.502 255.516 260.071 256.095 260.93 256.095C261.898 256.095 262.288 255.566 262.477 255.146L263.006 255.745C262.647 256.325 261.978 256.814 260.93 256.814ZM260.88 252.511C260.101 252.511 259.582 252.97 259.472 253.868H262.298C262.208 252.98 261.689 252.511 260.88 252.511ZM265.065 256.714H264.197V250.025H265.065V256.714Z" fill="white"/>
<rect x="12.5597" y="246.858" width="16.3277" height="16.086" rx="3.83991" fill="url(#paint2_linear_28764_3282)"/>
<path d="M17.929 255.102L19.7478 256.638L23.3856 252.798" stroke="#FFFEFF" stroke-width="1.15197" stroke-linecap="round" stroke-linejoin="round"/>
<rect x="54.6349" y="149.104" width="16.3277" height="16.086" rx="3.83991" fill="url(#paint3_linear_28764_3282)"/>
<path d="M60.0232 157.569L61.8421 159.105L65.4798 155.265" stroke="#FFFEFF" stroke-width="1.15197" stroke-linecap="round" stroke-linejoin="round"/>
<rect x="54.6349" y="196.125" width="16.3277" height="16.086" rx="3.83991" fill="url(#paint4_linear_28764_3282)"/>
<path d="M60.0232 204.415L61.8421 205.951L65.4798 202.111" stroke="#FFFEFF" stroke-width="1.15197" stroke-linecap="round" stroke-linejoin="round"/>
<rect x="186.512" y="192.413" width="16.3277" height="16.086" rx="3.83991" fill="url(#paint5_linear_28764_3282)"/>
<path d="M191.762 200.575L193.581 202.111L197.219 198.271" stroke="#FFFEFF" stroke-width="1.15197" stroke-linecap="round" stroke-linejoin="round"/>
<rect x="185.256" y="147.867" width="16.3277" height="16.086" rx="3.83991" fill="url(#paint6_linear_28764_3282)"/>
<path d="M190.983 156.032L192.801 157.568L196.439 153.729" stroke="#FFFEFF" stroke-width="1.15197" stroke-linecap="round" stroke-linejoin="round"/>
<rect x="54.007" y="292.022" width="16.3277" height="16.086" rx="3.83991" fill="url(#paint7_linear_28764_3282)"/>
<path d="M59.2435 300.413L61.0624 301.949L64.7002 298.109" stroke="#FFFEFF" stroke-width="1.15197" stroke-linecap="round" stroke-linejoin="round"/>
<ellipse cx="255.905" cy="46.0926" rx="9.10582" ry="8.97103" fill="#111111"/>
<rect x="70.3346" y="42.0708" width="7.53585" height="1.23738" fill="#111111"/>
<rect x="70.3346" y="45.1646" width="7.53585" height="1.23738" fill="#111111"/>
<rect x="70.3346" y="48.2578" width="7.53585" height="1.23738" fill="#111111"/>
<rect x="81.6384" y="154.673" width="91.6862" height="6.18692" rx="3.09346" fill="#EAE9E9"/>
<rect x="81.0105" y="201.075" width="91.6862" height="6.18692" rx="3.09346" fill="#EAE9E9"/>
<rect x="77.8705" y="297.591" width="91.6862" height="6.18692" rx="3.09346" fill="#EAE9E9"/>
<rect x="185.256" y="215.923" width="91.6862" height="6.18692" rx="3.09346" fill="#EAE9E9"/>
<rect x="186.512" y="168.903" width="91.6862" height="6.18692" rx="3.09346" fill="url(#paint8_linear_28764_3282)"/>
<rect x="182.116" y="297.591" width="91.6862" height="6.18692" rx="3.09346" fill="#EAE9E9"/>
<defs>
<linearGradient id="paint0_linear_28764_3282" x1="166.731" y1="29.0786" x2="166.731" y2="63.1067" gradientUnits="userSpaceOnUse">
<stop stop-color="#CE9FFC"/>
<stop offset="0.505208" stop-color="#A582F7"/>
<stop offset="1" stop-color="#7367F0"/>
</linearGradient>
<linearGradient id="paint1_linear_28764_3282" x1="20.7235" y1="97.7534" x2="20.7235" y2="113.839" gradientUnits="userSpaceOnUse">
<stop stop-color="#CE9FFC"/>
<stop offset="0.505208" stop-color="#A582F7"/>
<stop offset="1" stop-color="#7367F0"/>
</linearGradient>
<linearGradient id="paint2_linear_28764_3282" x1="20.7235" y1="246.858" x2="20.7235" y2="262.944" gradientUnits="userSpaceOnUse">
<stop stop-color="#CE9FFC"/>
<stop offset="0.505208" stop-color="#A582F7"/>
<stop offset="1" stop-color="#7367F0"/>
</linearGradient>
<linearGradient id="paint3_linear_28764_3282" x1="62.7987" y1="149.104" x2="62.7987" y2="165.19" gradientUnits="userSpaceOnUse">
<stop stop-color="#CE9FFC"/>
<stop offset="0.505208" stop-color="#A582F7"/>
<stop offset="1" stop-color="#7367F0"/>
</linearGradient>
<linearGradient id="paint4_linear_28764_3282" x1="62.7987" y1="196.125" x2="62.7987" y2="212.211" gradientUnits="userSpaceOnUse">
<stop stop-color="#CE9FFC"/>
<stop offset="0.505208" stop-color="#A582F7"/>
<stop offset="1" stop-color="#7367F0"/>
</linearGradient>
<linearGradient id="paint5_linear_28764_3282" x1="194.676" y1="192.413" x2="194.676" y2="208.499" gradientUnits="userSpaceOnUse">
<stop stop-color="#CE9FFC"/>
<stop offset="0.505208" stop-color="#A582F7"/>
<stop offset="1" stop-color="#7367F0"/>
</linearGradient>
<linearGradient id="paint6_linear_28764_3282" x1="193.42" y1="147.867" x2="193.42" y2="163.953" gradientUnits="userSpaceOnUse">
<stop stop-color="#CE9FFC"/>
<stop offset="0.505208" stop-color="#A582F7"/>
<stop offset="1" stop-color="#7367F0"/>
</linearGradient>
<linearGradient id="paint7_linear_28764_3282" x1="62.1708" y1="292.022" x2="62.1708" y2="308.108" gradientUnits="userSpaceOnUse">
<stop stop-color="#CE9FFC"/>
<stop offset="0.505208" stop-color="#A582F7"/>
<stop offset="1" stop-color="#7367F0"/>
</linearGradient>
<linearGradient id="paint8_linear_28764_3282" x1="232.355" y1="168.903" x2="232.355" y2="175.09" gradientUnits="userSpaceOnUse">
<stop stop-color="#CE9FFC"/>
<stop offset="0.505208" stop-color="#A582F7"/>
<stop offset="1" stop-color="#7367F0"/>
</linearGradient>
</defs>
</svg>
