<svg width="26" height="23" viewBox="0 0 26 23" fill="none" xmlns="http://www.w3.org/2000/svg">
<path d="M10.0768 17.8462H3.92296C3.27012 17.8462 2.64402 17.5869 2.18239 17.1253C1.72077 16.6637 1.46143 16.0376 1.46143 15.3847V3.07702C1.46143 2.42418 1.72077 1.79807 2.18239 1.33645C2.64402 0.874818 3.27012 0.615479 3.92296 0.615479H21.1537C21.8066 0.615479 22.4327 0.874818 22.8943 1.33645C23.3559 1.79807 23.6153 2.42418 23.6153 3.07702V8.61548" stroke="black" stroke-width="1.23077" stroke-linecap="round" stroke-linejoin="round"/>
<path d="M1.46143 3.0769L12.5383 10.4615L23.6153 3.0769M19.6768 20.0824L17.0036 21.4831C16.9242 21.5243 16.835 21.5428 16.7458 21.5363C16.6566 21.5298 16.571 21.4986 16.4985 21.4463C16.4259 21.3939 16.3694 21.3225 16.3352 21.2399C16.3009 21.1572 16.2903 21.0667 16.3045 20.9784L16.8153 18.0111L14.6528 15.9101C14.5883 15.8477 14.5426 15.7684 14.5209 15.6813C14.4993 15.5942 14.5026 15.5027 14.5304 15.4174C14.5583 15.332 14.6096 15.2563 14.6784 15.1987C14.7473 15.1411 14.831 15.104 14.9199 15.0917L17.9082 14.6584L19.2448 11.9594C19.2848 11.879 19.3464 11.8113 19.4227 11.7641C19.499 11.7168 19.587 11.6917 19.6768 11.6917C19.7666 11.6917 19.8546 11.7168 19.9309 11.7641C20.0072 11.8113 20.0688 11.879 20.1088 11.9594L21.4454 14.6584L24.4337 15.0917C24.5224 15.1044 24.6057 15.1417 24.6743 15.1994C24.7429 15.257 24.7939 15.3327 24.8217 15.4179C24.8495 15.503 24.8529 15.5943 24.8315 15.6813C24.8102 15.7683 24.7649 15.8475 24.7008 15.9101L22.5383 18.0111L23.0479 20.9772C23.0632 21.0657 23.0534 21.1566 23.0196 21.2398C22.9857 21.3229 22.9293 21.3949 22.8566 21.4476C22.7839 21.5003 22.6979 21.5316 22.6084 21.5378C22.5189 21.5441 22.4293 21.5251 22.35 21.4831L19.6768 20.0824Z" stroke="black" stroke-width="1.23077" stroke-linecap="round" stroke-linejoin="round"/>
</svg>
