<svg width="44" height="44" viewBox="0 0 44 44" fill="none" xmlns="http://www.w3.org/2000/svg">
<g filter="url(#filter0_b_28313_5208)">
<circle cx="22" cy="22" r="22" fill="black"/>
</g>
<path d="M27.6921 21.1235C27.5887 21.074 27.4837 21.0263 27.3774 20.9806C27.1921 17.5673 25.327 15.6131 22.1952 15.5931C22.181 15.593 22.1669 15.593 22.1528 15.593C20.2795 15.593 18.7216 16.3926 17.7628 17.8476L19.4851 19.0291C20.2014 17.9423 21.3257 17.7106 22.1536 17.7106C22.1631 17.7106 22.1727 17.7106 22.1822 17.7107C23.2134 17.7173 23.9915 18.0171 24.4951 18.6018C24.8616 19.0274 25.1067 19.6156 25.2281 20.358C24.3139 20.2026 23.3251 20.1548 22.2681 20.2154C19.2906 20.3869 17.3764 22.1235 17.505 24.5365C17.5702 25.7605 18.18 26.8135 19.2219 27.5014C20.1028 28.0829 21.2374 28.3673 22.4165 28.3029C23.9738 28.2175 25.1954 27.6234 26.0476 26.537C26.6949 25.712 27.1042 24.6429 27.285 23.2957C28.0271 23.7436 28.5771 24.333 28.8809 25.0415C29.3974 26.2459 29.4275 28.225 27.8126 29.8385C26.3978 31.252 24.697 31.8635 22.1267 31.8824C19.2755 31.8612 17.1192 30.9469 15.7173 29.1646C14.4044 27.4958 13.726 25.0852 13.7006 22C13.726 18.9147 14.4044 16.5042 15.7173 14.8353C17.1192 13.0531 19.2755 12.1388 22.1266 12.1176C24.9985 12.1389 27.1924 13.0577 28.648 14.8485C29.3618 15.7267 29.8999 16.8311 30.2546 18.1188L32.273 17.5803C31.843 15.9953 31.1664 14.6295 30.2456 13.4968C28.3795 11.2008 25.6503 10.0244 22.1337 10H22.1196C18.6102 10.0243 15.9115 11.2052 14.0985 13.5099C12.4852 15.5608 11.653 18.4145 11.6251 21.9916L11.625 22L11.6251 22.0084C11.653 25.5855 12.4852 28.4393 14.0985 30.4901C15.9115 32.7948 18.6102 33.9757 22.1196 34H22.1337C25.2538 33.9784 27.453 33.1615 29.2647 31.3514C31.6351 28.9832 31.5637 26.0149 30.7825 24.1926C30.222 22.8859 29.1534 21.8245 27.6921 21.1235ZM22.3051 26.1884C21.0001 26.2619 19.6443 25.6761 19.5774 24.4215C19.5279 23.4913 20.2395 22.4532 22.3851 22.3296C22.6309 22.3154 22.872 22.3085 23.1089 22.3085C23.8883 22.3085 24.6174 22.3842 25.2802 22.5291C25.033 25.6169 23.5828 26.1182 22.3051 26.1884Z" fill="white"/>
<defs>
<filter id="filter0_b_28313_5208" x="-25" y="-25" width="94" height="94" filterUnits="userSpaceOnUse" color-interpolation-filters="sRGB">
<feFlood flood-opacity="0" result="BackgroundImageFix"/>
<feGaussianBlur in="BackgroundImageFix" stdDeviation="12.5"/>
<feComposite in2="SourceAlpha" operator="in" result="effect1_backgroundBlur_28313_5208"/>
<feBlend mode="normal" in="SourceGraphic" in2="effect1_backgroundBlur_28313_5208" result="shape"/>
</filter>
</defs>
</svg>
