<svg width="24" height="24" viewBox="0 0 24 24" fill="none" xmlns="http://www.w3.org/2000/svg">
<path fill-rule="evenodd" clip-rule="evenodd" d="M11.6294 12.9C9.14344 12.9 7.07178 10.9 7.07178 8.5C7.07178 6 9.14344 4 11.6294 4C14.219 4 16.2907 6 16.2907 8.5C16.2907 10.9 14.219 12.9 11.6294 12.9ZM15.462 8.5C15.462 6.4 13.8047 4.79999 11.6294 4.79999C9.55777 4.79999 7.90044 6.4 7.90044 8.5C7.90044 10.5 9.55777 12.1 11.6294 12.1C13.8047 12.1 15.462 10.5 15.462 8.5Z" fill="black" stroke="black" stroke-width="0.3"/>
<path d="M8.72899 13.8C6.8645 14.6 5.82867 15.9 5.82867 17.4V18.6C5.82867 18.8 5.6215 19 5.41433 19C5.20717 19 5 18.8 5 18.6V17.4C5 15.6 6.243 14 8.41824 13.1C8.62541 13 8.83258 13.1 8.93616 13.3C9.03974 13.5 8.93616 13.7 8.72899 13.8Z" fill="black" stroke="black" stroke-width="0.3"/>
<path d="M18.3623 17.4V18.6C18.3623 18.8 18.1551 19 17.948 19C17.7408 19 17.5336 18.8 17.5336 18.6V17.4C17.5336 15.9 16.4978 14.6 14.6333 13.8C14.4261 13.7 14.3226 13.5 14.4261 13.3C14.5297 13.1 14.7369 13 14.944 13.1C17.1193 14 18.3623 15.6 18.3623 17.4Z" fill="black" stroke="black" stroke-width="0.3"/>
</svg>
