<svg width="24" height="24" viewBox="0 0 24 24" fill="none" xmlns="http://www.w3.org/2000/svg">
<path fill-rule="evenodd" clip-rule="evenodd" d="M11.6294 12.9C9.14344 12.9 7.07178 10.9 7.07178 8.5C7.07178 6 9.14344 4 11.6294 4C14.219 4 16.2907 6 16.2907 8.5C16.2907 10.9 14.219 12.9 11.6294 12.9ZM15.462 8.5C15.462 6.4 13.8047 4.79999 11.6294 4.79999C9.55777 4.79999 7.90044 6.4 7.90044 8.5C7.90044 10.5 9.55777 12.1 11.6294 12.1C13.8047 12.1 15.462 10.5 15.462 8.5Z" fill="white" stroke="white" stroke-width="0.3"/>
<path d="M8.72899 13.7998C6.8645 14.5998 5.82867 15.8998 5.82867 17.3998V18.5998C5.82867 18.7998 5.6215 18.9998 5.41433 18.9998C5.20717 18.9998 5 18.7998 5 18.5998V17.3998C5 15.5998 6.243 13.9998 8.41824 13.0998C8.62541 12.9998 8.83258 13.0998 8.93616 13.2998C9.03974 13.4998 8.93616 13.6998 8.72899 13.7998Z" fill="white" stroke="white" stroke-width="0.3"/>
<path d="M18.3623 17.3998V18.5998C18.3623 18.7998 18.1551 18.9998 17.948 18.9998C17.7408 18.9998 17.5336 18.7998 17.5336 18.5998V17.3998C17.5336 15.8998 16.4978 14.5998 14.6333 13.7998C14.4261 13.6998 14.3226 13.4998 14.4261 13.2998C14.5297 13.0998 14.7369 12.9998 14.944 13.0998C17.1193 13.9998 18.3623 15.5998 18.3623 17.3998Z" fill="white" stroke="white" stroke-width="0.3"/>
</svg>
